#!OML:ASF H:\Terrain\Patient Classification 1\PLAYGROUND\JustinFriday\JustinFriday.ASF
:FULLY-SPECIFIED
:DEGREES
1838
root -8.46667 27.5276 -8.56207 317.214 88.4935 4.45015
lowerback 28.4423 6.24461 6.45531
upperback 9.31731 11.0849 2.59453
thorax -4.37304 5.9786 -4.18792
lowerneck 7.70509 4.09732 16.7281
upperneck 4.60994 7.11839 -8.37213
head 1.02186 3.92157 -5.26584
rclavicle -1.86858e-014 -5.08889e-014
rhumerus 4.39085 -15.5978 -40.5225
rradius 141.371
rwrist 14.76
rhand -14.9814 -20.6415
rfingers 7.12502
rthumb 11.1826 -50.3235
lclavicle -1.86858e-014 -5.08889e-014
lhumerus 24.2823 -10.7207 78.8252
lradius 130.454
lwrist -12.7831
lhand -3.51263 -5.89326
lfingers 7.12502
lthumb 22.2219 22.8493
rfemur -13.9994 -8.81582 22.0857
rtibia 44.4395
rfoot 3.25053 -5.57338
rtoes 18.4066
lfemur -20.0001 9.39982 -7.39039
ltibia 52.386
lfoot 9.16808 0.213747
ltoes 16.5616
1839
root -8.45451 27.5158 -8.5715 312.479 88.4368 -0.370756
lowerback 28.1433 5.85948 6.04854
upperback 9.46139 10.4413 2.53487
thorax -4.19551 5.67065 -3.8039
lowerneck 7.48203 4.92214 15.9363
upperneck 4.92757 8.12396 -7.78182
head 1.22534 4.4153 -4.92839
rclavicle -8.07066e-014 4.13472e-014
rhumerus 5.88297 -15.528 -41.2424
rradius 140.732
rwrist 15.3726
rhand -15.046 -20.2184
rfingers 7.12502
rthumb 11.1204 -49.9037
lclavicle -8.07066e-014 4.13472e-014
lhumerus 24.2587 -9.32363 78.026
lradius 130.494
lwrist -12.8393
lhand -4.00486 -5.271
lfingers 7.12502
lthumb 21.7493 23.5271
rfemur -14.121 -8.87564 22.1244
rtibia 44.5262
rfoot 3.11965 -5.66515
rtoes 17.9814
lfemur -20.2073 9.35118 -7.3537
ltibia 52.093
lfoot 8.98815 0.504837
ltoes 17.3097
1840
root -8.44701 27.5072 -8.57702 312.071 88.3817 -0.774275
lowerback 28.4024 6.06551 6.7043
upperback 9.18378 10.9032 2.52888
thorax -4.46166 5.87581 -4.34771
lowerneck 8.42803 4.37377 16.6482
upperneck 4.22556 7.59444 -8.2667
head 0.847102 4.1618 -5.24109
rclavicle -6.16232e-015 -3.97569e-014
rhumerus 4.66097 -15.9874 -40.8359
rradius 140.958
rwrist 14.9218
rhand -14.0414 -19.484
rfingers 7.12502
rthumb 12.0892 -49.1148
lclavicle -6.16232e-015 -3.97569e-014
lhumerus 24.1198 -10.3934 78.6469
lradius 130.331
lwrist -12.8663
lhand -4.38533 -4.81459
lfingers 7.12502
lthumb 21.3839 24.0254
rfemur -14.0841 -8.90893 22.1064
rtibia 44.5403
rfoot 3.40562 -5.52112
rtoes 15.7887
lfemur -20.3572 9.46522 -7.33612
ltibia 51.8858
lfoot 8.70506 0.507351
ltoes 16.4808
1841
root -8.44118 27.5021 -8.57558 314.99 88.313 2.2809
lowerback 28.4467 6.05883 6.45886
upperback 9.23898 10.8354 2.5894
thorax -4.48627 5.84055 -4.1361
lowerneck 7.73057 4.39537 15.1414
upperneck 5.26033 7.4082 -7.06139
head 1.14512 4.0678 -4.59968
rclavicle 5.56597e-015 -3.18055e-015
rhumerus 4.85329 -15.4778 -41.2837
rradius 140.608
rwrist 16.8103
rhand -13.9539 -19.0962
rfingers 7.12502
rthumb 12.1735 -48.722
lclavicle 5.56597e-015 -3.18055e-015
lhumerus 24.0162 -9.99908 78.643
lradius 130.228
lwrist -12.9946
lhand -4.9283 -4.5805
lfingers 7.12502
lthumb 20.8623 24.3178
rfemur -13.8094 -8.77703 22.0029
rtibia 44.4947
rfoot 3.50832 -5.51221
rtoes 14.006
lfemur -20.3004 9.80038 -7.38319
ltibia 51.676
lfoot 8.4778 -0.27617
ltoes 11.8303
1842
root -8.4415 27.5163 -8.58044 318.958 88.3056 6.3501
lowerback 27.9482 5.69521 5.71698
upperback 9.5332 10.1176 2.53229
thorax -4.10999 5.51113 -3.50858
lowerneck 7.88755 4.90648 15.138
upperneck 5.33396 8.13225 -7.40991
head 1.23569 4.43424 -4.69887
rclavicle -2.78299e-014 -7.4743e-014
rhumerus 6.44242 -14.0256 -42.4527
rradius 140.408
rwrist 15.7897
rhand -14.7776 -19.3576
rfingers 7.12502
rthumb 11.3792 -49.0289
lclavicle -2.78299e-014 -7.4743e-014
lhumerus 23.8383 -8.18708 78.0461
lradius 130.19
lwrist -12.4293
lhand -4.88929 -4.76115
lfingers 7.12502
lthumb 20.8998 24.133
rfemur -13.4599 -8.56616 21.6425
rtibia 44.4486
rfoot 3.11468 -5.78557
rtoes 17.164
lfemur -20.2111 9.82939 -7.5555
ltibia 51.4003
lfoot 8.15398 -0.581356
ltoes 8.96798
1843
root -8.44888 27.5409 -8.58414 318.02 88.3126 5.26578
lowerback 27.8084 5.82664 6.15292
upperback 9.35671 10.3856 2.53884
thorax -4.14207 5.63497 -3.80505
lowerneck 7.05552 4.60619 14.1816
upperneck 7.16839 7.61021 -6.46887
head 1.78507 4.21584 -4.21934
rclavicle 1.43125e-014 -8.34896e-014
rhumerus 5.71411 -14.5053 -41.986
rradius 140.391
rwrist 15.7318
rhand -14.2689 -19.1631
rfingers 7.12502
rthumb 11.8698 -48.8067
lclavicle 1.43125e-014 -8.34896e-014
lhumerus 23.6194 -9.03104 78.3953
lradius 130.119
lwrist -12.628
lhand -5.50969 -3.98775
lfingers 7.12502
lthumb 20.3036 24.971
rfemur -13.4469 -8.4071 21.4432
rtibia 44.4737
rfoot 2.92536 -6.04271
rtoes 20.1776
lfemur -20.4028 9.6907 -7.62491
ltibia 51.0851
lfoot 7.88554 -0.713665
ltoes 7.87778
1844
root -8.45731 27.5389 -8.58204 313.872 88.1739 1.218
lowerback 27.8756 5.66695 6.1425
upperback 9.34372 10.1794 2.55633
thorax -4.21295 5.52693 -3.73558
lowerneck 6.50324 4.77733 17.1887
upperneck 8.02307 8.09714 -8.69389
head 2.38264 4.53349 -5.33924
rclavicle -2.92213e-014 -1.03368e-013
rhumerus 6.12906 -14.2321 -41.9779
rradius 140.131
rwrist 15.174
rhand -14.7428 -19.3736
rfingers 7.12502
rthumb 11.4128 -49.043
lclavicle -2.92213e-014 -1.03368e-013
lhumerus 23.3959 -8.98282 78.3968
lradius 129.991
lwrist -13.418
lhand -6.36308 -2.17047
lfingers 7.12502
lthumb 19.4833 26.8734
rfemur -13.3239 -8.11262 21.5177
rtibia 44.5648
rfoot 2.96963 -6.37393
rtoes 19.8861
lfemur -20.2571 9.42422 -7.31735
ltibia 50.7459
lfoot 7.70244 -0.325813
ltoes 12.2493
1845
root -8.45642 27.5302 -8.57739 317.991 88.3105 5.3692
lowerback 27.7723 5.58392 5.68405
upperback 9.35635 9.93277 2.51223
thorax -4.2422 5.39645 -3.45636
lowerneck 6.7992 4.77537 16.6806
upperneck 7.79981 8.08277 -8.32356
head 2.23287 4.51585 -5.15609
rclavicle -4.23411e-014 1.51076e-014
rhumerus 6.84298 -15.2083 -41.7348
rradius 139.926
rwrist 14.8249
rhand -13.1472 -19.4589
rfingers 7.12502
rthumb 12.9513 -49.0369
lclavicle -4.23411e-014 1.51076e-014
lhumerus 23.6938 -8.68227 76.6184
lradius 130.213
lwrist -12.4625
lhand -7.03642 -0.801943
lfingers 7.12502
lthumb 18.8358 28.3061
rfemur -13.2224 -7.88589 21.2085
rtibia 44.752
rfoot 2.83503 -6.65285
rtoes 19.8861
lfemur -20.1448 9.09342 -7.41144
ltibia 50.4626
lfoot 7.4028 0.430703
ltoes 18.3391
1846
root -8.44927 27.5421 -8.58569 332.325 88.2575 19.8596
lowerback 27.5873 5.61698 5.25935
upperback 9.46631 9.84373 2.43104
thorax -4.09507 5.36027 -3.25677
lowerneck 6.77411 4.74184 15.0575
upperneck 8.04264 7.88803 -7.11687
head 2.17755 4.39912 -4.52966
rclavicle -1.45113e-014 -2.38542e-014
rhumerus 6.98063 -15.0394 -41.8221
rradius 140.072
rwrist 14.5861
rhand -12.7064 -19.681
rfingers 7.12502
rthumb 13.3762 -49.2316
lclavicle -1.45113e-014 -2.38542e-014
lhumerus 23.1676 -8.19076 77.4906
lradius 129.844
lwrist -12.1968
lhand -6.55299 -1.04788
lfingers 7.12502
lthumb 19.3007 28.0143
rfemur -12.8245 -7.70985 20.601
rtibia 44.9529
rfoot 2.65069 -6.53182
rtoes 21.4237
lfemur -19.8254 9.21756 -7.86671
ltibia 50.2765
lfoot 6.96271 0.297379
ltoes 15.1793
1847
root -8.45443 27.5317 -8.58055 326.968 88.1084 14.5328
lowerback 27.6327 5.57618 5.30242
upperback 9.41821 9.80652 2.52446
thorax -4.1839 5.33225 -3.18079
lowerneck 6.03618 4.63309 13.277
upperneck 9.3318 7.5346 -5.78425
head 2.52775 4.22718 -3.81327
rclavicle 1.28415e-013 2.3059e-014
rhumerus 6.86261 -14.4086 -42.139
rradius 140.252
rwrist 14.5486
rhand -12.6582 -19.6712
rfingers 7.12502
rthumb 13.4227 -49.2188
lclavicle 1.28415e-013 2.3059e-014
lhumerus 22.7403 -8.22607 77.7645
lradius 129.702
lwrist -12.5009
lhand -6.88816 -0.311091
lfingers 7.12502
lthumb 18.9784 28.783
rfemur -12.7512 -7.38733 20.788
rtibia 45.2178
rfoot 2.50289 -6.78106
rtoes 21.9914
lfemur -19.9418 9.35577 -7.67683
ltibia 50.0999
lfoot 6.98539 -0.245056
ltoes 9.61519
1848
root -8.45941 27.5135 -8.57589 311.98 87.8336 -0.569594
lowerback 27.4819 5.31117 5.5098
upperback 9.3679 9.50753 2.68655
thorax -4.18835 5.17673 -3.02323
lowerneck 6.27536 4.64363 12.28
upperneck 9.4754 7.53203 -5.50182
head 2.48276 4.21118 -3.57731
rclavicle -6.06293e-014 1.11319e-014
rhumerus 7.62966 -13.6498 -42.8275
rradius 139.979
rwrist 14.4949
rhand -12.4067 -19.5349
rfingers 7.12502
rthumb 13.665 -49.0663
lclavicle -6.06293e-014 1.11319e-014
lhumerus 22.2734 -8.45946 77.1839
lradius 129.801
lwrist -13.9776
lhand -8.53645 0.852212
lfingers 7.12502
lthumb 17.3926 30.0941
rfemur -12.8363 -7.16827 21.4172
rtibia 45.4461
rfoot 2.56041 -7.02804
rtoes 20.6054
lfemur -20.2994 9.2566 -7.01826
ltibia 50.0538
lfoot 7.04664 -0.825635
ltoes 6.37563
1849
root -8.45363 27.534 -8.59601 340.682 88.0962 28.4816
lowerback 27.0941 5.09283 4.06157
upperback 9.76555 8.80864 2.35678
thorax -3.77483 4.85191 -2.31899
lowerneck 5.6545 5.08351 12.0868
upperneck 10.4565 8.10858 -5.7204
head 2.92747 4.50616 -3.56646
rclavicle -3.1408e-014 -2.22639e-014
rhumerus 9.24557 -11.9761 -44.4504
rradius 139.619
rwrist 14.8522
rhand -12.2627 -19.1476
rfingers 7.12502
rthumb 13.8039 -48.6697
lclavicle -3.1408e-014 -2.22639e-014
lhumerus 22.2398 -6.44328 76.2362
lradius 129.828
lwrist -11.9138
lhand -6.84726 -1.01588
lfingers 7.12502
lthumb 19.0177 28.0744
rfemur -12.2652 -7.12371 19.9268
rtibia 45.7356
rfoot 2.75079 -6.51372
rtoes 18.9058
lfemur -19.6084 9.02193 -8.23185
ltibia 49.906
lfoot 6.42152 -0.751553
ltoes 3.90964
1850
root -8.45974 27.526 -8.59099 317.286 87.8353 4.97935
lowerback 26.5942 4.4033 3.88328
upperback 9.96353 7.84096 2.50722
thorax -3.41788 4.37963 -1.72614
lowerneck 5.33917 5.8592 15.0783
upperneck 10.6459 9.42957 -8.18763
head 3.40489 5.20241 -4.7307
rclavicle 3.28989e-014 4.92986e-014
rhumerus 11.2565 -9.89963 -46.3416
rradius 139.209
rwrist 15.3021
rhand -12.2628 -18.758
rfingers 7.12502
rthumb 13.8038 -48.28
lclavicle 3.28989e-014 4.92986e-014
lhumerus 22.07 -4.4711 74.7728
lradius 129.352
lwrist -13.2262
lhand -8.56271 1.31511
lfingers 7.12502
lthumb 17.3673 30.5592
rfemur -12.3026 -6.93682 20.8138
rtibia 46.0492
rfoot 2.64692 -7.14966
rtoes 19.1806
lfemur -19.9651 8.90509 -7.25387
ltibia 49.9492
lfoot 6.37487 -0.333729
ltoes 7.08392
1851
root -8.46663 27.5155 -8.58527 309.482 87.7648 -2.86453
lowerback 26.8874 4.68992 4.80886
upperback 9.63219 8.46979 2.68072
thorax -3.79037 4.67712 -2.27487
lowerneck 4.57511 5.0351 11.4363
upperneck 11.9632 7.92126 -5.07383
head 3.48885 4.43441 -3.22012
rclavicle 1.66979e-014 2.14687e-014
rhumerus 9.86312 -10.5996 -45.3485
rradius 139.119
rwrist 15.1792
rhand -12.1188 -18.7295
rfingers 7.12502
rthumb 13.9426 -48.242
lclavicle 1.66979e-014 2.14687e-014
lhumerus 22.0605 -6.04815 75.4944
lradius 128.786
lwrist -13.4667
lhand -8.82272 -0.0555039
lfingers 7.12502
lthumb 17.1171 29.2105
rfemur -12.209 -6.82781 21.0259
rtibia 46.4342
rfoot 2.41386 -7.80592
rtoes 20.6532
lfemur -20.1292 8.65341 -6.84851
ltibia 49.9036
lfoot 6.20433 0.504126
ltoes 13.3334
1852
root -8.46556 27.5001 -8.58736 312.532 87.8639 0.261523
lowerback 26.8233 4.6502 4.44512
upperback 9.60261 8.3185 2.74371
thorax -3.8637 4.58803 -1.96413
lowerneck 4.15604 4.97088 10.7833
upperneck 13.0214 7.81567 -4.73859
head 3.82907 4.3961 -2.9936
rclavicle -7.41467e-014 -1.66979e-014
rhumerus 10.1779 -10.0766 -45.4241
rradius 138.85
rwrist 15.2226
rhand -12.1295 -18.7617
rfingers 7.12502
rthumb 13.9322 -48.2749
lclavicle -7.41467e-014 -1.66979e-014
lhumerus 21.7376 -5.20651 75.5358
lradius 128.5
lwrist -11.6999
lhand -7.25528 -2.91009
lfingers 7.12502
lthumb 18.6253 26.2182
rfemur -11.9687 -6.72137 20.7047
rtibia 46.8276
rfoot 2.36223 -8.06771
rtoes 20.0346
lfemur -20.0862 8.90357 -7.13267
ltibia 50.095
lfoot 5.80362 -0.0309009
ltoes 7.60553
